<svg width="165" height="165" viewBox="0 0 165 165" fill="none" xmlns="http://www.w3.org/2000/svg">
<path d="M85.7955 151L88.4545 159.727H87.0455L85.1591 153.045H85.0682L83.2045 159.727H81.7727L79.9318 153.068H79.8409L77.9545 159.727H76.5455L79.2045 151H80.5227L82.4318 157.705H82.5682L84.4773 151H85.7955Z" fill="white"/>
<path d="M67.8008 149.184C68.6313 149.315 69.3188 149.612 69.863 150.074C70.403 150.539 70.7832 151.129 71.0038 151.843C71.2201 152.56 71.2583 153.359 71.1185 154.242C70.9786 155.125 70.6945 155.878 70.2661 156.501C69.8334 157.126 69.2971 157.582 68.6574 157.868C68.0133 158.157 67.3022 158.24 66.524 158.117C66.0751 158.046 65.6436 157.901 65.2296 157.682C64.8155 157.463 64.4556 157.156 64.1498 156.763C63.8434 156.373 63.6271 155.886 63.5009 155.302C63.3748 154.719 63.3754 154.025 63.5028 153.22L63.5917 152.659L70.2361 153.711L70.0548 154.856L64.7572 154.017C64.6802 154.504 64.7087 154.953 64.8428 155.365C64.9732 155.777 65.1986 156.122 65.5191 156.399C65.8358 156.675 66.2336 156.851 66.7124 156.927C67.24 157.011 67.7171 156.952 68.144 156.751C68.5665 156.553 68.9135 156.263 69.185 155.881C69.4566 155.498 69.63 155.069 69.7052 154.594L69.8261 153.831C69.9292 153.18 69.9044 152.61 69.7516 152.122C69.5945 151.637 69.3326 151.244 68.9658 150.945C68.5985 150.649 68.1474 150.458 67.6124 150.374C67.2644 150.318 66.9425 150.317 66.6465 150.37C66.3461 150.426 66.0774 150.537 65.8402 150.703C65.6024 150.872 65.4037 151.098 65.2441 151.379L64.0215 150.817C64.2249 150.405 64.5117 150.059 64.8818 149.78C65.2514 149.505 65.6845 149.313 66.1812 149.203C66.6773 149.098 67.2172 149.091 67.8008 149.184Z" fill="white"/>
<path d="M52.1294 143.676C52.6222 143.927 53.0221 144.247 53.3291 144.638C53.6344 145.031 53.8149 145.466 53.8706 145.94C53.9246 146.418 53.8226 146.911 53.5647 147.417C53.3377 147.862 53.0659 148.179 52.7494 148.366C52.4312 148.557 52.0848 148.657 51.7104 148.666C51.3359 148.675 50.9517 148.628 50.5578 148.525C50.1588 148.424 49.7667 148.304 49.3815 148.168C48.878 147.988 48.4717 147.838 48.1626 147.719C47.8484 147.601 47.604 147.547 47.4295 147.556C47.2516 147.563 47.1136 147.663 47.0156 147.855L46.9949 147.896C46.7404 148.395 46.6794 148.853 46.8117 149.269C46.9407 149.683 47.2803 150.03 47.8304 150.311C48.4008 150.601 48.9116 150.704 49.3628 150.62C49.8141 150.535 50.1778 150.385 50.4539 150.168L51.3815 151.151C50.9382 151.52 50.4808 151.751 50.0092 151.842C49.5324 151.935 49.0666 151.931 48.6117 151.831C48.1516 151.733 47.7259 151.584 47.3344 151.384C47.0846 151.257 46.8132 151.081 46.5202 150.855C46.222 150.631 45.9675 150.35 45.7566 150.013C45.5423 149.674 45.4277 149.269 45.4126 148.798C45.3976 148.327 45.5474 147.783 45.8621 147.165L48.4725 142.042L49.6673 142.651L49.1308 143.704L49.1915 143.735C49.3585 143.607 49.5855 143.495 49.8725 143.399C50.1595 143.303 50.4944 143.268 50.877 143.293C51.2597 143.318 51.6772 143.445 52.1294 143.676ZM51.4003 144.656C50.9278 144.415 50.4823 144.305 50.0637 144.326C49.6417 144.345 49.2732 144.459 48.9583 144.668C48.6399 144.876 48.3982 145.141 48.2331 145.465L47.6759 146.559C47.7575 146.524 47.8972 146.525 48.0952 146.562C48.288 146.601 48.5052 146.658 48.7469 146.735C48.9835 146.813 49.2133 146.892 49.4363 146.971C49.6542 147.053 49.8316 147.117 49.9684 147.166C50.2996 147.284 50.6234 147.366 50.9398 147.412C51.2511 147.46 51.5351 147.437 51.7916 147.342C52.043 147.249 52.2461 147.051 52.4009 146.747C52.6124 146.332 52.6187 145.94 52.42 145.571C52.2161 145.204 51.8762 144.899 51.4003 144.656Z" fill="white"/>
<path d="M43.6519 138.946L38.5221 146.006L37.4741 145.245L38.2489 144.179L38.1754 144.125C37.7928 144.381 37.354 144.495 36.8588 144.468C36.3637 144.44 35.9046 144.273 35.4817 143.966C35.4021 143.908 35.3036 143.834 35.1863 143.744C35.069 143.654 34.9819 143.584 34.9251 143.533L35.7266 142.43C35.7567 142.466 35.831 142.541 35.9494 142.655C36.0625 142.77 36.1911 142.88 36.3351 142.985C36.6783 143.234 37.0371 143.385 37.4114 143.437C37.7804 143.489 38.1344 143.447 38.4732 143.309C38.8068 143.172 39.0894 142.944 39.3209 142.626L42.5671 138.158L43.6519 138.946Z" fill="white"/>
<path d="M34.0292 130.645C34.6238 131.24 35.0055 131.884 35.1742 132.577C35.3376 133.271 35.2988 133.972 35.0577 134.679C34.8113 135.386 34.372 136.055 33.7399 136.687C33.1078 137.32 32.4355 137.762 31.723 138.013C31.0052 138.265 30.3035 138.319 29.6178 138.174C28.9268 138.029 28.3027 137.678 27.7456 137.121C27.4242 136.8 27.1603 136.429 26.9541 136.008C26.7478 135.588 26.6367 135.129 26.6206 134.63C26.6019 134.135 26.713 133.614 26.9541 133.068C27.1951 132.521 27.6036 131.96 28.1795 131.384L28.5812 130.982L33.3381 135.739L32.5185 136.559L28.7259 132.766C28.3777 133.114 28.1366 133.495 28.0027 133.907C27.8661 134.317 27.846 134.728 27.9424 135.141C28.0362 135.55 28.2545 135.927 28.5973 136.27C28.975 136.647 29.3955 136.88 29.8588 136.969C30.3169 137.057 30.7682 137.026 31.2128 136.876C31.6574 136.726 32.0498 136.481 32.39 136.141L32.9364 135.595C33.4024 135.129 33.7171 134.653 33.8805 134.168C34.0385 133.684 34.0573 133.212 33.9368 132.754C33.8136 132.299 33.5604 131.88 33.1774 131.497C32.9283 131.248 32.6685 131.057 32.398 130.926C32.1221 130.795 31.8396 130.727 31.5503 130.721C31.2583 130.719 30.965 130.784 30.6704 130.918L30.0115 129.745C30.4186 129.531 30.8539 129.42 31.3173 129.412C31.7779 129.406 32.2413 129.505 32.7074 129.709C33.1707 129.915 33.6113 130.227 34.0292 130.645Z" fill="white"/>
<path d="M21.4901 113.244C21.8615 113.973 22.0093 114.689 21.9333 115.391C21.8573 116.093 21.5895 116.739 21.1298 117.331C20.6701 117.922 20.0522 118.415 19.2759 118.811C18.4861 119.213 17.7153 119.423 16.9632 119.441C16.2061 119.457 15.5238 119.29 14.9164 118.941C14.3039 118.589 13.8188 118.063 13.4611 117.361C13.1825 116.814 13.0327 116.27 13.0117 115.728C12.9906 115.186 13.091 114.682 13.3127 114.216C13.5345 113.75 13.8712 113.36 14.3228 113.045L14.9316 114.239C14.6236 114.511 14.4129 114.874 14.2995 115.327C14.1809 115.778 14.2558 116.267 14.524 116.794C14.7614 117.26 15.0909 117.606 15.5128 117.833C15.9295 118.059 16.4072 118.158 16.9457 118.13C17.4791 118.1 18.0394 117.936 18.6266 117.637C19.2274 117.331 19.7024 116.97 20.0516 116.554C20.3991 116.134 20.6074 115.688 20.6767 115.215C20.7442 114.738 20.6576 114.264 20.4168 113.791C20.2586 113.481 20.061 113.226 19.8241 113.028C19.5871 112.83 19.3226 112.695 19.0307 112.623C18.7388 112.55 18.4322 112.549 18.1108 112.62L17.5021 111.425C17.9955 111.258 18.494 111.215 18.9978 111.294C19.4964 111.372 19.9646 111.573 20.4025 111.898C20.8352 112.222 21.1978 112.671 21.4901 113.244Z" fill="white"/>
<path d="M17.8929 105.331L9.59281 108.028L9.19249 106.796L10.4462 106.389L10.4181 106.302C9.95822 106.284 9.53603 106.119 9.1515 105.806C8.76696 105.492 8.49393 105.087 8.3324 104.59C8.30197 104.496 8.26572 104.379 8.22368 104.237C8.18163 104.095 8.1525 103.987 8.1363 103.913L9.43319 103.492C9.43643 103.538 9.45241 103.643 9.48113 103.805C9.50507 103.964 9.54455 104.129 9.59957 104.298C9.73066 104.701 9.93237 105.034 10.2047 105.296C10.4722 105.556 10.7836 105.729 11.1387 105.817C11.489 105.902 11.8515 105.884 12.2262 105.762L17.4786 104.056L17.8929 105.331Z" fill="white"/>
<path d="M14.9869 92.9594C15.1184 93.79 15.0486 94.5355 14.7773 95.1959C14.5018 95.8532 14.0587 96.397 13.448 96.8273C12.833 97.2546 12.0841 97.5381 11.2011 97.6779C10.3182 97.8178 9.51454 97.7802 8.79016 97.5651C8.06144 97.3468 7.46223 96.9777 6.99251 96.4577C6.51847 95.9345 6.21982 95.2838 6.09657 94.5056C6.02546 94.0566 6.03007 93.6015 6.11039 93.14C6.19071 92.6786 6.37078 92.2416 6.65061 91.8292C6.9267 91.4173 7.32283 91.0611 7.83902 90.7608C8.35521 90.4604 9.01549 90.2465 9.81985 90.1191L10.381 90.0303L11.4334 96.6747L10.2886 96.856L9.44954 91.5584C8.96318 91.6355 8.5446 91.8015 8.1938 92.0565C7.84242 92.3077 7.5845 92.6285 7.42006 93.0189C7.25503 93.4055 7.21044 93.8383 7.28628 94.3172C7.36983 94.8447 7.57307 95.2804 7.89599 95.6242C8.21458 95.965 8.5978 96.2053 9.04567 96.3453C9.49354 96.4853 9.95504 96.5177 10.4302 96.4424L11.1934 96.3215C11.8444 96.2184 12.3784 96.0188 12.7956 95.7226C13.2084 95.4233 13.5006 95.0529 13.6723 94.6116C13.8403 94.1708 13.8819 93.6829 13.7972 93.1479C13.7421 92.7999 13.6436 92.4934 13.5019 92.2282C13.3559 91.9599 13.1674 91.7385 12.9365 91.5641C12.7019 91.3904 12.4261 91.2711 12.109 91.2062L12.2655 89.8698C12.7208 89.9358 13.1383 90.1017 13.5179 90.3676C13.8937 90.634 14.2104 90.9866 14.4677 91.4252C14.7214 91.8644 14.8944 92.3758 14.9869 92.9594Z" fill="white"/>
<path d="M14.2045 83.2124C14.2045 83.7654 14.1004 84.2673 13.892 84.718C13.6799 85.1688 13.375 85.5268 12.9773 85.7919C12.5758 86.0571 12.0909 86.1896 11.5227 86.1896C11.0227 86.1896 10.6174 86.0911 10.3068 85.8942C9.99242 85.6972 9.74621 85.4339 9.56818 85.1044C9.39015 84.7749 9.25758 84.4112 9.17045 84.0135C9.07955 83.612 9.00758 83.2086 8.95455 82.8033C8.88636 82.273 8.83523 81.843 8.80114 81.5135C8.76326 81.1802 8.70076 80.9377 8.61364 80.7862C8.52652 80.6309 8.375 80.5533 8.15909 80.5533H8.11364C7.55303 80.5533 7.11742 80.7067 6.80682 81.0135C6.49621 81.3165 6.34091 81.7768 6.34091 82.3942C6.34091 83.0343 6.48106 83.5362 6.76136 83.8999C7.04167 84.2635 7.34091 84.5192 7.65909 84.6669L7.20455 85.9396C6.67424 85.7124 6.26136 85.4093 5.96591 85.0305C5.66667 84.648 5.45833 84.2313 5.34091 83.7805C5.2197 83.326 5.15909 82.879 5.15909 82.4396C5.15909 82.1593 5.19318 81.8374 5.26136 81.4737C5.32576 81.1063 5.46023 80.7521 5.66477 80.4112C5.86932 80.0665 6.17803 79.7805 6.59091 79.5533C7.00379 79.326 7.55682 79.2124 8.25 79.2124H14V80.5533H12.8182V80.6214C13.0076 80.7124 13.2102 80.8639 13.4261 81.076C13.642 81.2881 13.8258 81.5703 13.9773 81.9226C14.1288 82.2749 14.2045 82.7048 14.2045 83.2124ZM13 83.0078C13 82.4775 12.8958 82.0305 12.6875 81.6669C12.4792 81.2995 12.2102 81.023 11.8807 80.8374C11.5511 80.648 11.2045 80.5533 10.8409 80.5533H9.61364C9.68182 80.6101 9.74432 80.7351 9.80114 80.9283C9.85417 81.1177 9.90151 81.3374 9.94318 81.5874C9.98106 81.8336 10.0152 82.0741 10.0455 82.3089C10.072 82.54 10.0947 82.7275 10.1136 82.8714C10.1591 83.2199 10.233 83.5457 10.3352 83.8487C10.4337 84.148 10.5833 84.3904 10.7841 84.576C10.9811 84.7578 11.25 84.8487 11.5909 84.8487C12.0568 84.8487 12.4091 84.6764 12.6477 84.3317C12.8826 83.9832 13 83.5419 13 83.0078Z" fill="white"/>
<path d="M6.5545 68.3282L7.67688 68.5059L6.96936 72.973L5.84699 72.7952L6.5545 68.3282ZM3.98803 71.1662L4.1978 69.8418L12.4136 71.143C12.7877 71.2023 13.0769 71.1925 13.2811 71.1136C13.4822 71.0304 13.6282 70.9078 13.7191 70.7457C13.8068 70.5794 13.866 70.3989 13.8968 70.2044C13.92 70.0585 13.9314 69.9376 13.9313 69.8417C13.9274 69.7452 13.9243 69.668 13.9219 69.6101L15.1543 69.5292C15.1738 69.6243 15.1876 69.7549 15.1958 69.9211C15.2077 70.0879 15.1941 70.2948 15.155 70.5417C15.0958 70.9159 14.9573 71.2698 14.7395 71.6034C14.5223 71.9334 14.2305 72.1901 13.8639 72.3737C13.4979 72.5535 13.0643 72.6037 12.563 72.5243L3.98803 71.1662Z" fill="white"/>
<path d="M17.2619 61.6103L8.96181 58.9134L9.37617 57.6381L17.6763 60.335L17.2619 61.6103ZM7.78915 57.8155C7.70838 58.064 7.55408 58.2509 7.32623 58.376C7.09956 58.4975 6.86734 58.5196 6.62958 58.4424C6.39181 58.3651 6.21695 58.2107 6.10499 57.9792C5.9942 57.7441 5.97919 57.5022 6.05995 57.2536C6.14072 57.0051 6.29444 56.82 6.52111 56.6985C6.74895 56.5734 6.98176 56.5495 7.21952 56.6267C7.45728 56.704 7.63156 56.8602 7.74235 57.0953C7.85431 57.3268 7.86991 57.5669 7.78915 57.8155Z" fill="white"/>
<path d="M15.4652 43.955L21.7762 50.7926L21.1571 52.0076L11.9159 50.921L12.5762 49.625L19.8665 50.6358L19.9077 50.5548L14.8049 45.251L15.4652 43.955Z" fill="white"/>
<path d="M27.3648 42.1574C26.8705 42.8377 26.294 43.3154 25.6352 43.5906C24.9756 43.8605 24.2777 43.9317 23.5416 43.8042C22.8047 43.6715 22.0746 43.3424 21.3514 42.8169C20.6282 42.2915 20.0865 41.6966 19.7264 41.0323C19.3654 40.3627 19.2027 39.678 19.2383 38.9781C19.2731 38.2729 19.522 37.6017 19.9851 36.9643C20.2523 36.5965 20.5774 36.2779 20.9605 36.0084C21.3436 35.7389 21.7799 35.5573 22.2694 35.4635C22.7559 35.3675 23.2878 35.3958 23.8652 35.5484C24.4426 35.701 25.0607 36.0166 25.7196 36.4953L26.1792 36.8293L22.225 42.2718L21.2873 41.5905L24.44 37.2512C24.0416 36.9618 23.6282 36.7832 23.1999 36.7154C22.7738 36.6446 22.3645 36.6891 21.9722 36.8488C21.5821 37.0055 21.2446 37.28 20.9596 37.6723C20.6457 38.1044 20.4813 38.5561 20.4665 39.0276C20.4508 39.4938 20.5519 39.9348 20.7696 40.3505C20.9873 40.7661 21.2907 41.1154 21.6799 41.3981L22.305 41.8523C22.8383 42.2397 23.3571 42.4762 23.8614 42.5617C24.365 42.642 24.8335 42.5868 25.267 42.3961C25.6975 42.2031 26.0719 41.8876 26.3903 41.4493C26.5974 41.1644 26.7446 40.878 26.8319 40.5903C26.9183 40.2973 26.9416 40.0075 26.9016 39.7209C26.8586 39.4322 26.7479 39.1527 26.5695 38.8827L27.6252 38.0484C27.9005 38.417 28.0784 38.8295 28.1588 39.2859C28.2362 39.7401 28.2108 40.2132 28.0826 40.7054C27.9514 41.1953 27.7121 41.6793 27.3648 42.1574Z" fill="white"/>
<path d="M42.5295 27.0946C41.8492 27.5888 41.1533 27.865 40.4417 27.9232C39.7309 27.976 39.0452 27.8281 38.3845 27.4794C37.7247 27.1254 37.132 26.5868 36.6066 25.8636C36.0812 25.1404 35.7498 24.4072 35.6126 23.6641C35.4762 22.9158 35.5331 22.2143 35.7832 21.5597C36.0342 20.8998 36.4783 20.3383 37.1158 19.8752C37.4835 19.608 37.8912 19.4054 38.3388 19.2675C38.7864 19.1296 39.2574 19.0917 39.752 19.1537C40.2444 19.2127 40.7415 19.404 41.2435 19.7276C41.7454 20.0512 42.2358 20.5424 42.7145 21.2012L43.0484 21.6609L37.6059 25.6151L36.9246 24.6774L41.2639 21.5247C40.9745 21.1263 40.6365 20.8287 40.2501 20.6319C39.8667 20.4329 39.4638 20.3487 39.0413 20.3795C38.6219 20.4079 38.216 20.5647 37.8238 20.8497C37.3917 21.1636 37.0957 21.5425 36.936 21.9863C36.777 22.4249 36.7368 22.8754 36.8154 23.3381C36.894 23.8007 37.0747 24.2266 37.3574 24.6157L37.8116 25.2409C38.199 25.7741 38.6194 26.1593 39.0727 26.3965C39.5268 26.6285 39.9894 26.7207 40.4607 26.6733C40.9297 26.6229 41.3833 26.4384 41.8215 26.1201C42.1065 25.913 42.335 25.6861 42.5069 25.4395C42.6797 25.1875 42.7913 24.9191 42.8419 24.6342C42.8902 24.3463 42.8713 24.0464 42.7851 23.7344L44.0469 23.2672C44.1948 23.7028 44.2365 24.1501 44.172 24.609C44.1052 25.0648 43.9348 25.507 43.6609 25.9355C43.3847 26.3609 43.0076 26.7472 42.5295 27.0946Z" fill="white"/>
<path d="M50.9239 11.9147L52.0105 21.1559L50.7955 21.775L43.9578 15.4641L45.2538 14.8037L50.5577 19.9066L50.6387 19.8653L49.6279 12.5751L50.9239 11.9147Z" fill="white"/>
<path d="M61.6073 17.4547C60.8076 17.7145 60.0603 17.7622 59.3656 17.5976C58.6733 17.4282 58.0669 17.0756 57.5463 16.5398C57.0281 15.9992 56.6309 15.3039 56.3547 14.4537C56.0784 13.6035 55.9899 12.8038 56.089 12.0547C56.1905 11.3008 56.4614 10.6513 56.9016 10.106C57.3442 9.55592 57.9401 9.15916 58.6894 8.91569C59.1217 8.77523 59.572 8.70857 60.0404 8.71572C60.5087 8.72287 60.9684 8.83237 61.4196 9.04422C61.8696 9.25247 62.2833 9.58802 62.6607 10.0509C63.0381 10.5137 63.3527 11.1324 63.6043 11.9069L63.7799 12.4473L57.3819 14.5262L57.0237 13.4238L62.1248 11.7663C61.9727 11.298 61.7432 10.9106 61.4365 10.604C61.1334 10.2962 60.7762 10.0917 60.3649 9.99032C59.9572 9.8878 59.5228 9.91145 59.0617 10.0613C58.5537 10.2263 58.1552 10.4952 57.8661 10.868C57.5794 11.2359 57.4019 11.652 57.3337 12.1163C57.2655 12.5805 57.3057 13.0414 57.4544 13.4989L57.6932 14.2338C57.8968 14.8607 58.1776 15.3569 58.5353 15.7226C58.8956 16.0835 59.3071 16.3142 59.7699 16.4148C60.2315 16.5117 60.7199 16.4765 61.2351 16.3091C61.5701 16.2002 61.8575 16.0551 62.0973 15.8736C62.3394 15.6874 62.5286 15.4666 62.6647 15.2113C62.7996 14.9524 62.8743 14.6613 62.8887 14.338L64.2331 14.2835C64.2392 14.7435 64.1407 15.1818 63.9375 15.5983C63.7331 16.0112 63.4344 16.3791 63.0415 16.7019C62.6473 17.0212 62.1693 17.2721 61.6073 17.4547Z" fill="white"/>
<path d="M68.8776 9.98873L69.6988 15.1741L68.3744 15.3839L67.0092 6.76404L68.2887 6.56138L68.502 7.90823L68.6142 7.89045C68.7469 7.42073 68.998 7.02046 69.3675 6.68966C69.7364 6.3551 70.2463 6.13628 70.8973 6.03317C71.4809 5.94073 72.0105 5.97957 72.4862 6.14968C72.9613 6.31605 73.3586 6.62129 73.6782 7.06539C73.9972 7.50575 74.2148 8.09258 74.331 8.82586L75.1985 14.303L73.8741 14.5128L73.0208 9.12542C72.9135 8.44825 72.6541 7.94859 72.2426 7.62642C71.8305 7.30051 71.3177 7.18615 70.7041 7.28333C70.2813 7.35029 69.918 7.5018 69.6141 7.73785C69.3139 7.97332 69.0962 8.282 68.9611 8.6639C68.826 9.0458 68.7982 9.48741 68.8776 9.98873Z" fill="white"/>
<path d="M84.6165 5.27273V6.40909L80.0938 6.40909V5.27273L84.6165 5.27273ZM81.4119 3.18182L82.7528 3.18182V11.5C82.7528 11.8788 82.8078 12.1629 82.9176 12.3523C83.0313 12.5379 83.1752 12.6629 83.3494 12.7273C83.5275 12.7879 83.715 12.8182 83.9119 12.8182C84.0597 12.8182 84.1809 12.8106 84.2756 12.7955C84.3703 12.7765 84.446 12.7614 84.5028 12.75L84.7756 13.9545C84.6847 13.9886 84.5578 14.0227 84.3949 14.0568C84.232 14.0947 84.0256 14.1136 83.7756 14.1136C83.3968 14.1136 83.0256 14.0322 82.6619 13.8693C82.3021 13.7064 82.0028 13.4583 81.7642 13.125C81.5294 12.7917 81.4119 12.3712 81.4119 11.8636V3.18182Z" fill="white"/>
<path d="M98.2223 15.583L100.919 7.28289L102.151 7.68321L101.73 8.98011L101.838 9.01522C102.155 8.6283 102.546 8.37498 103.011 8.25526C103.477 8.13193 103.98 8.15806 104.521 8.33363C105.068 8.51155 105.484 8.78391 105.767 9.1507C106.055 9.51506 106.229 9.95216 106.291 10.462L106.377 10.4901C106.729 10.1304 107.158 9.8936 107.665 9.77954C108.174 9.66189 108.725 9.69963 109.319 9.89277C110.061 10.1339 110.593 10.5635 110.914 11.1815C111.236 11.796 111.238 12.5914 110.921 13.5676L109.116 19.1227L107.841 18.7083L109.646 13.1533C109.845 12.5409 109.82 12.0487 109.57 11.6769C109.32 11.305 108.969 11.0454 108.515 10.8979C107.931 10.7083 107.422 10.7379 106.986 10.9868C106.552 11.232 106.248 11.623 106.073 12.1598L104.318 17.5635L103.021 17.1422L104.868 11.4574C105.021 10.9855 104.992 10.5557 104.779 10.168C104.568 9.77671 104.221 9.50263 103.738 9.34578C103.406 9.2381 103.068 9.22569 102.722 9.30857C102.38 9.39262 102.07 9.56268 101.792 9.81874C101.518 10.0724 101.315 10.4027 101.183 10.8098L99.4976 15.9974L98.2223 15.583Z" fill="white"/>
<path d="M112.871 21.3243C112.378 21.0733 111.978 20.7526 111.671 20.3623C111.366 19.9687 111.185 19.5345 111.129 19.0597C111.075 18.5816 111.177 18.0894 111.435 17.5832C111.662 17.1377 111.934 16.8212 112.251 16.6339C112.569 16.4432 112.915 16.3433 113.29 16.3343C113.664 16.3253 114.048 16.3723 114.442 16.4752C114.841 16.5765 115.233 16.6955 115.619 16.8323C116.122 17.0123 116.528 17.1619 116.837 17.2811C117.152 17.3987 117.396 17.4531 117.571 17.4442C117.748 17.4371 117.886 17.3374 117.984 17.145L118.005 17.1045C118.26 16.605 118.321 16.1472 118.188 15.7312C118.059 15.3168 117.72 14.9695 117.17 14.6892C116.599 14.3986 116.088 14.2956 115.637 14.3803C115.186 14.4649 114.822 14.6155 114.546 14.8319L113.619 13.8491C114.062 13.4798 114.519 13.2495 114.991 13.1582C115.468 13.0653 115.933 13.0688 116.388 13.1688C116.848 13.2672 117.274 13.4161 117.666 13.6156C117.915 13.7428 118.187 13.9194 118.48 14.1452C118.778 14.3694 119.033 14.65 119.243 14.987C119.458 15.3258 119.572 15.7307 119.587 16.2017C119.602 16.6728 119.453 17.2171 119.138 17.8347L116.527 22.958L115.333 22.3493L115.869 21.2963L115.808 21.2653C115.642 21.3928 115.415 21.5046 115.127 21.6006C114.84 21.6967 114.506 21.7323 114.123 21.7074C113.74 21.6824 113.323 21.5548 112.871 21.3243ZM113.6 20.3439C114.072 20.5847 114.518 20.6948 114.936 20.6743C115.358 20.6554 115.727 20.5413 116.042 20.332C116.36 20.1243 116.602 19.8585 116.767 19.5345L117.324 18.441C117.243 18.476 117.103 18.4749 116.905 18.4378C116.712 18.3991 116.495 18.3415 116.253 18.2652C116.017 18.1871 115.787 18.1083 115.564 18.0287C115.346 17.9474 115.168 17.8825 115.032 17.8341C114.7 17.7164 114.377 17.6343 114.06 17.5878C113.749 17.5397 113.465 17.563 113.208 17.6576C112.957 17.7506 112.754 17.9489 112.599 18.2527C112.388 18.6678 112.381 19.0599 112.58 19.429C112.784 19.7965 113.124 20.1015 113.6 20.3439Z" fill="white"/>
<path d="M124.141 21.594L121.055 25.8413L119.97 25.0532L125.1 17.9927L126.148 18.7541L125.347 19.8573L125.438 19.9241C125.864 19.6858 126.325 19.5803 126.82 19.6076C127.318 19.6319 127.833 19.8377 128.366 20.2252C128.844 20.5725 129.191 20.9745 129.407 21.4311C129.626 21.8846 129.691 22.3814 129.603 22.9215C129.517 23.4584 129.256 24.0272 128.819 24.6279L125.56 29.1142L124.475 28.3261L127.681 23.9132C128.084 23.3586 128.254 22.8218 128.191 22.3031C128.13 21.7812 127.848 21.3377 127.346 20.9725C126.999 20.721 126.635 20.5712 126.253 20.5232C125.875 20.4774 125.502 20.5418 125.137 20.7163C124.771 20.8908 124.439 21.1834 124.141 21.594Z" fill="white"/>
<path d="M130.288 33.7047C129.897 33.3137 129.616 32.8851 129.445 32.4191C129.276 31.9503 129.238 31.4816 129.332 31.0129C129.429 30.5415 129.678 30.1049 130.079 29.7031C130.433 29.3496 130.789 29.1326 131.148 29.0523C131.51 28.9692 131.87 28.9813 132.229 29.0884C132.588 29.1956 132.939 29.359 133.281 29.5786C133.63 29.7982 133.966 30.0326 134.29 30.2817C134.713 30.6084 135.053 30.8763 135.31 31.0852C135.573 31.2941 135.788 31.4214 135.957 31.4669C136.129 31.5151 136.291 31.4629 136.443 31.3102L136.476 31.2781C136.872 30.8816 137.071 30.4651 137.074 30.0286C137.08 29.5947 136.864 29.1594 136.427 28.7228C135.975 28.2702 135.521 28.0144 135.065 27.9555C134.61 27.8965 134.218 27.9273 133.888 28.0479L133.31 26.8265C133.845 26.6122 134.352 26.5345 134.828 26.5935C135.31 26.6524 135.752 26.7997 136.154 27.0354C136.561 27.2711 136.92 27.5443 137.231 27.855C137.429 28.0532 137.633 28.305 137.842 28.6103C138.056 28.9157 138.211 29.2612 138.308 29.6469C138.407 30.0353 138.391 30.4558 138.259 30.9084C138.128 31.3611 137.817 31.8325 137.327 32.3226L133.261 36.3885L132.313 35.4403L133.149 34.6047L133.101 34.5565C132.902 34.6261 132.652 34.6623 132.349 34.6649C132.047 34.6676 131.717 34.598 131.361 34.456C131.005 34.3141 130.647 34.0636 130.288 33.7047ZM131.285 32.9976C131.66 33.3726 132.049 33.615 132.454 33.7248C132.861 33.8373 133.247 33.8427 133.611 33.7409C133.978 33.6418 134.29 33.4637 134.547 33.2065L135.415 32.3387C135.326 32.3467 135.194 32.3026 135.017 32.2061C134.846 32.1097 134.657 31.9878 134.451 31.8405C134.25 31.6932 134.056 31.5472 133.868 31.4026C133.686 31.258 133.537 31.1415 133.422 31.0531C133.144 30.8388 132.861 30.6607 132.574 30.5187C132.293 30.3768 132.016 30.3111 131.743 30.3219C131.475 30.3326 131.22 30.4585 130.979 30.6995C130.65 31.029 130.523 31.3999 130.598 31.8124C130.678 32.2249 130.907 32.62 131.285 32.9976Z" fill="white"/>
<path d="M136.786 43.7147C136.405 43.1907 136.145 42.6912 136.006 42.2163C135.864 41.7437 135.81 41.3027 135.845 40.8933C135.88 40.4892 135.966 40.1246 136.104 39.7994L137.339 40.2227C137.281 40.4143 137.224 40.6453 137.168 40.9156C137.108 41.1883 137.112 41.4993 137.179 41.8489C137.245 42.2037 137.432 42.5941 137.742 43.0201C138.156 43.59 138.636 43.9602 139.181 44.1307C139.726 44.3011 140.293 44.1726 140.881 43.7451L142.315 42.7031L142.248 42.6112C142.062 42.625 141.82 42.6274 141.523 42.6183C141.232 42.6101 140.913 42.5231 140.568 42.3572C140.228 42.1922 139.891 41.8798 139.557 41.4202C139.143 40.8502 138.906 40.2404 138.846 39.591C138.789 38.9446 138.921 38.3026 139.245 37.665C139.57 37.0305 140.101 36.446 140.836 35.9117C141.56 35.3862 142.282 35.0559 143.003 34.9206C143.727 34.7831 144.401 34.8342 145.025 35.074C145.651 35.3116 146.181 35.7276 146.613 36.3221C146.947 36.7818 147.135 37.2021 147.178 37.5831C147.226 37.965 147.205 38.298 147.117 38.5823C147.034 38.8675 146.96 39.0944 146.895 39.2631L146.975 39.3735L148.097 38.5586L148.858 39.6066L141.596 44.8833C140.989 45.3242 140.395 45.5447 139.815 45.545C139.234 45.5506 138.686 45.3866 138.172 45.053C137.658 44.7247 137.195 44.2786 136.786 43.7147ZM140.639 40.8592C140.955 41.2944 141.321 41.5898 141.739 41.7454C142.156 41.901 142.609 41.9211 143.096 41.8057C143.583 41.6904 144.088 41.4435 144.609 41.065C145.117 40.6954 145.511 40.2926 145.788 39.8566C146.066 39.4206 146.206 38.9723 146.209 38.5117C146.211 38.0511 146.052 37.6001 145.732 37.1589C145.398 36.6992 145.003 36.4007 144.547 36.2635C144.094 36.1293 143.616 36.1281 143.112 36.2599C142.611 36.3947 142.121 36.6358 141.643 36.9831C141.153 37.3394 140.775 37.731 140.509 38.1581C140.249 38.586 140.122 39.0296 140.127 39.4888C140.139 39.9489 140.309 40.4057 140.639 40.8592Z" fill="white"/>
<path d="M143.476 53.2034C143.095 52.4542 142.931 51.7236 142.985 51.0117C143.044 50.3014 143.297 49.6473 143.745 49.0493C144.198 48.4529 144.822 47.9519 145.619 47.546C146.415 47.1402 147.191 46.9276 147.947 46.9083C148.707 46.8907 149.391 47.0566 149.998 47.406C150.611 47.7571 151.096 48.2837 151.454 48.9857C151.66 49.3907 151.796 49.825 151.863 50.2887C151.929 50.7524 151.893 51.2236 151.754 51.7024C151.619 52.1794 151.352 52.6405 150.954 53.0857C150.556 53.5308 149.994 53.9383 149.268 54.308L148.762 54.566L145.708 48.5719L146.741 48.0457L149.176 52.8247C149.614 52.6012 149.961 52.314 150.216 51.9631C150.473 51.6155 150.619 51.2307 150.654 50.8086C150.692 50.3899 150.601 49.9646 150.381 49.5325C150.138 49.0567 149.81 48.7051 149.397 48.4779C148.988 48.2523 148.55 48.1421 148.08 48.1473C147.611 48.1526 147.162 48.2644 146.734 48.4828L146.045 48.8336C145.458 49.1329 145.012 49.4878 144.707 49.8983C144.406 50.3106 144.243 50.7531 144.216 51.226C144.193 51.6971 144.304 52.1739 144.55 52.6566C144.71 52.9705 144.898 53.2316 145.115 53.44C145.336 53.6501 145.584 53.8024 145.858 53.8968C146.134 53.9896 146.434 54.0178 146.755 53.9815L147.019 55.3009C146.566 55.3788 146.118 55.3501 145.674 55.2145C145.235 55.0772 144.825 54.8398 144.444 54.5022C144.067 54.1629 143.745 53.7299 143.476 53.2034Z" fill="white"/>
<path d="M145.878 59.6707L154.178 56.9738L154.578 58.2059L153.281 58.6272L153.316 58.7353C153.816 58.7643 154.25 58.9317 154.621 59.2375C154.995 59.5422 155.269 59.9648 155.445 60.5052C155.623 61.0527 155.646 61.5488 155.516 61.9934C155.391 62.4405 155.14 62.8387 154.763 63.188L154.791 63.2744C155.289 63.3477 155.733 63.5559 156.123 63.8991C156.517 64.2411 156.811 64.7093 157.004 65.3037C157.245 66.0458 157.21 66.7283 156.899 67.3512C156.591 67.973 155.949 68.4424 154.972 68.7597L149.417 70.5646L149.003 69.2893L154.558 67.4844C155.171 67.2854 155.554 66.9757 155.708 66.5552C155.862 66.1347 155.865 65.6975 155.718 65.2436C155.528 64.66 155.205 64.2652 154.748 64.0593C154.294 63.8522 153.799 63.8359 153.262 64.0103L147.858 65.7661L147.437 64.4692L153.122 62.6221C153.594 62.4688 153.924 62.1922 154.113 61.7923C154.305 61.3913 154.323 60.9494 154.166 60.4667C154.058 60.1353 153.869 59.8541 153.599 59.6233C153.33 59.396 153.01 59.2451 152.639 59.1704C152.273 59.0981 151.887 59.1281 151.48 59.2604L146.292 60.946L145.878 59.6707Z" fill="white"/>
<path d="M150.013 79.6089C149.882 78.7784 149.951 78.0329 150.223 77.3725C150.498 76.7152 150.941 76.1714 151.552 75.741C152.167 75.3138 152.916 75.0303 153.799 74.8904C154.682 74.7506 155.485 74.7882 156.21 75.0033C156.939 75.2215 157.538 75.5907 158.007 76.1107C158.482 76.6339 158.78 77.2846 158.903 78.0628C158.975 78.5117 158.97 78.9669 158.89 79.4283C158.809 79.8898 158.629 80.3267 158.349 80.7392C158.073 81.1511 157.677 81.5072 157.161 81.8076C156.645 82.1079 155.985 82.3218 155.18 82.4492L154.619 82.5381L153.567 75.8937L154.711 75.7123L155.55 81.0099C156.037 80.9329 156.455 80.7669 156.806 80.5119C157.158 80.2607 157.415 79.9399 157.58 79.5495C157.745 79.1628 157.79 78.7301 157.714 78.2512C157.63 77.7237 157.427 77.288 157.104 76.9441C156.785 76.6034 156.402 76.363 155.954 76.223C155.506 76.0831 155.045 76.0507 154.57 76.1259L153.807 76.2468C153.156 76.3499 152.622 76.5496 152.204 76.8457C151.792 77.1451 151.499 77.5154 151.328 77.9568C151.16 78.3976 151.118 78.8855 151.203 79.4205C151.258 79.7684 151.356 80.075 151.498 80.3402C151.644 80.6085 151.833 80.8299 152.063 81.0042C152.298 81.178 152.574 81.2973 152.891 81.3621L152.734 82.6985C152.279 82.6326 151.862 82.4667 151.482 82.2008C151.106 81.9343 150.79 81.5818 150.532 81.1432C150.279 80.704 150.106 80.1925 150.013 79.6089Z" fill="white"/>
<path d="M156.25 89.3885H151V88.0476H159.727V89.343H158.364V89.4567C158.807 89.6612 159.163 89.9718 159.432 90.3885C159.705 90.8052 159.841 91.343 159.841 92.0021C159.841 92.593 159.72 93.1101 159.477 93.5533C159.239 93.9964 158.875 94.3411 158.386 94.5874C157.902 94.8336 157.288 94.9567 156.545 94.9567H151V93.6158H156.455C157.14 93.6158 157.674 93.4377 158.057 93.0817C158.443 92.7256 158.636 92.237 158.636 91.6158C158.636 91.1877 158.544 90.8052 158.358 90.468C158.172 90.1347 157.902 89.8714 157.545 89.6783C157.189 89.4851 156.758 89.3885 156.25 89.3885Z" fill="white"/>
<path d="M158.445 104.727L157.323 104.549L158.031 100.082L159.153 100.259L158.445 104.727ZM161.012 101.889L160.802 103.213L152.586 101.912C152.212 101.852 151.923 101.862 151.719 101.941C151.518 102.024 151.372 102.147 151.281 102.309C151.193 102.475 151.134 102.656 151.103 102.85C151.08 102.996 151.069 103.117 151.069 103.213C151.073 103.31 151.076 103.387 151.078 103.445L149.846 103.526C149.826 103.43 149.812 103.3 149.804 103.134C149.792 102.967 149.806 102.76 149.845 102.513C149.904 102.139 150.043 101.785 150.261 101.451C150.478 101.121 150.77 100.865 151.136 100.681C151.502 100.501 151.936 100.451 152.437 100.53L161.012 101.889Z" fill="white"/>
<path d="M140.34 112.256C140.635 111.679 140.962 111.221 141.322 110.881C141.678 110.54 142.047 110.292 142.428 110.137C142.803 109.984 143.167 109.896 143.52 109.871L143.703 111.164C143.506 111.199 143.275 111.254 143.008 111.326C142.738 111.397 142.463 111.541 142.181 111.759C141.895 111.979 141.633 112.324 141.393 112.793C141.074 113.42 140.962 114.016 141.057 114.579C141.153 115.142 141.525 115.589 142.173 115.919L143.752 116.724L143.804 116.623C143.707 116.463 143.595 116.248 143.468 115.98C143.343 115.716 143.276 115.393 143.267 115.01C143.26 114.632 143.385 114.19 143.643 113.684C143.963 113.056 144.399 112.568 144.95 112.22C145.5 111.875 146.132 111.702 146.847 111.701C147.56 111.703 148.322 111.91 149.132 112.323C149.929 112.729 150.551 113.222 150.999 113.803C151.45 114.386 151.71 115.01 151.78 115.674C151.853 116.341 151.722 117.001 151.389 117.656C151.131 118.162 150.842 118.521 150.522 118.732C150.203 118.948 149.897 119.081 149.604 119.131C149.312 119.187 149.076 119.224 148.897 119.243L148.835 119.364L150.07 119.994L149.482 121.148L141.483 117.072C140.815 116.732 140.349 116.303 140.085 115.786C139.816 115.271 139.714 114.709 139.778 114.099C139.836 113.492 140.024 112.877 140.34 112.256ZM144.634 114.393C144.39 114.872 144.293 115.333 144.344 115.775C144.395 116.218 144.582 116.63 144.906 117.012C145.23 117.394 145.679 117.731 146.253 118.023C146.813 118.309 147.351 118.477 147.865 118.526C148.38 118.576 148.843 118.497 149.254 118.29C149.666 118.083 149.996 117.737 150.243 117.251C150.501 116.745 150.588 116.257 150.503 115.789C150.417 115.324 150.201 114.897 149.855 114.509C149.507 114.123 149.07 113.796 148.544 113.528C148.004 113.253 147.483 113.094 146.982 113.051C146.482 113.013 146.029 113.101 145.623 113.315C145.218 113.534 144.888 113.893 144.634 114.393Z" fill="white"/>
<path d="M138.946 121.348L146.006 126.478L145.245 127.526L144.179 126.751L144.125 126.825C144.381 127.207 144.495 127.646 144.468 128.141C144.44 128.636 144.273 129.095 143.966 129.518C143.908 129.598 143.834 129.696 143.744 129.814C143.654 129.931 143.584 130.018 143.533 130.075L142.43 129.273C142.466 129.243 142.541 129.169 142.655 129.051C142.77 128.937 142.88 128.809 142.985 128.665C143.234 128.322 143.385 127.963 143.437 127.589C143.489 127.22 143.447 126.866 143.309 126.527C143.172 126.193 142.944 125.911 142.626 125.679L138.158 122.433L138.946 121.348Z" fill="white"/>
<path d="M130.809 130.808C131.366 130.25 131.987 129.894 132.673 129.739C133.356 129.586 134.054 129.63 134.766 129.871C135.476 130.115 136.149 130.556 136.787 131.193C137.43 131.836 137.874 132.514 138.121 133.226C138.364 133.941 138.41 134.64 138.257 135.323C138.102 136.009 137.746 136.631 137.189 137.188C136.632 137.745 136.011 138.1 135.328 138.252C134.643 138.408 133.944 138.362 133.231 138.116C132.516 137.872 131.837 137.429 131.194 136.786C130.557 136.148 130.118 135.473 129.877 134.761C129.633 134.051 129.589 133.353 129.744 132.668C129.897 131.985 130.252 131.365 130.809 130.808ZM131.66 131.659C131.237 132.083 130.997 132.539 130.941 133.029C130.885 133.52 130.968 134.007 131.19 134.492C131.413 134.977 131.73 135.425 132.142 135.838C132.555 136.25 133.005 136.569 133.492 136.794C133.98 137.019 134.47 137.105 134.963 137.051C135.456 136.997 135.914 136.759 136.337 136.336C136.76 135.913 136.998 135.455 137.052 134.962C137.106 134.469 137.02 133.979 136.795 133.491C136.57 133.004 136.251 132.554 135.839 132.141C135.426 131.729 134.978 131.412 134.493 131.189C134.008 130.967 133.521 130.884 133.03 130.94C132.54 130.996 132.084 131.236 131.66 131.659Z" fill="white"/>
<path d="M123.179 142.026L126.211 146.2L125.127 146.988L119.997 139.927L121.082 139.139L121.95 140.334L122.024 140.281C121.929 139.802 121.964 139.31 122.131 138.805C122.3 138.303 122.651 137.858 123.185 137.471C123.626 137.15 124.088 136.962 124.572 136.906C125.057 136.852 125.541 136.951 126.022 137.2C126.505 137.453 126.965 137.88 127.402 138.481L130.661 142.967L129.576 143.755L126.37 139.342C125.996 138.827 125.554 138.521 125.043 138.424C124.529 138.329 124.047 138.445 123.597 138.773C123.327 138.969 123.103 139.237 122.924 139.577C122.742 139.92 122.66 140.303 122.677 140.726C122.691 141.151 122.858 141.585 123.179 142.026Z" fill="white"/>
<path d="M115.025 139.134L120.473 149.826L119.319 150.414L118.69 149.179L118.548 149.251C118.529 149.431 118.495 149.665 118.447 149.953C118.396 150.246 118.266 150.551 118.057 150.866C117.846 151.186 117.487 151.475 116.981 151.733C116.326 152.066 115.666 152.197 115 152.124C114.333 152.051 113.707 151.785 113.121 151.327C112.535 150.869 112.033 150.232 111.617 149.415C111.198 148.592 110.974 147.807 110.946 147.06C110.92 146.316 111.071 145.653 111.399 145.069C111.728 144.489 112.217 144.034 112.865 143.704C113.364 143.449 113.806 143.328 114.191 143.34C114.577 143.356 114.906 143.429 115.176 143.559C115.448 143.692 115.664 143.808 115.824 143.905L115.925 143.853L113.831 139.742L115.025 139.134ZM117.318 146.536C117.019 145.949 116.669 145.475 116.268 145.113C115.869 144.756 115.439 144.534 114.979 144.45C114.521 144.369 114.053 144.45 113.574 144.694C113.074 144.949 112.724 145.293 112.524 145.726C112.323 146.165 112.252 146.652 112.312 147.187C112.37 147.726 112.54 148.273 112.822 148.827C113.101 149.373 113.436 149.823 113.829 150.176C114.219 150.534 114.649 150.755 115.117 150.84C115.583 150.929 116.07 150.845 116.576 150.587C117.062 150.34 117.408 150.008 117.613 149.593C117.82 149.182 117.896 148.714 117.841 148.189C117.788 147.668 117.614 147.117 117.318 146.536Z" fill="white"/>
<path d="M103.638 147.562C103.905 147.475 104.164 147.496 104.417 147.625C104.67 147.754 104.84 147.952 104.927 148.218C105.013 148.485 104.992 148.745 104.863 148.998C104.735 149.251 104.537 149.42 104.27 149.507C104.004 149.594 103.744 149.572 103.491 149.444C103.238 149.315 103.068 149.117 102.981 148.85C102.924 148.674 102.917 148.497 102.959 148.32C102.997 148.144 103.075 147.987 103.194 147.849C103.31 147.716 103.458 147.62 103.638 147.562Z" fill="white"/>
</svg>
